<?xml version="1.0" encoding="UTF-8"?>
<svg version="1.1" width="24" height="24" xmlns="http://www.w3.org/2000/svg" viewBox="130 115 1040 1040">
<path d="M0 0 C1.24343192 -0.00115384 2.48686384 -0.00230769 3.76797551 -0.0034965 C7.21800717 -0.00568656 10.6679831 -0.00339706 14.11800942 0.00078164 C17.87178807 0.00422201 21.62556379 0.00184386 25.37934303 0.00020415 C31.9576952 -0.00186832 38.53603831 -0.00022798 45.11438942 0.00384235 C54.89615353 0.00987797 64.67791194 0.0101781 74.45967757 0.00930037 C90.91424661 0.00798645 107.36881164 0.01132794 123.82337952 0.01731777 C140.11671468 0.02323372 156.41004817 0.0270835 172.7033844 0.02817059 C173.71625398 0.02823933 174.72912356 0.02830806 175.77268615 0.02837889 C180.91648731 0.02871722 186.06028848 0.0290186 191.20408964 0.02930576 C227.64263744 0.03140647 264.08118305 0.03814466 300.51972961 0.04760838 C335.92044564 0.05679194 371.32116107 0.06387598 406.72187805 0.06811619 C407.81298071 0.06824771 408.90408338 0.06837924 410.02824976 0.06851475 C420.98549814 0.06983327 431.94274652 0.07110908 442.89999491 0.07235361 C465.22140065 0.07488986 487.54280635 0.07771111 509.86421204 0.08070469 C511.40368316 0.08091062 511.40368316 0.08091062 512.97425471 0.08112072 C581.51594387 0.09032221 650.05763181 0.1061675 718.59931946 0.12304783 C718.66969364 28.97580608 718.72244587 57.82855129 718.75475597 86.68137836 C718.75781506 89.35936331 718.76093903 92.03734817 718.76411438 94.71533298 C718.76490131 95.38087662 718.76568824 96.04642025 718.76649902 96.73213187 C718.77867495 106.78157019 718.79976055 116.83095957 718.82563782 126.88037205 C718.85572998 138.57230012 718.87493904 150.26418933 718.88158494 161.95615506 C718.88546395 168.13532693 718.89444863 174.31438768 718.91650963 180.4935236 C719.0891881 230.80574244 719.0891881 230.80574244 715.59931946 253.12304783 C715.4839855 253.87307323 715.36865154 254.62309864 715.24982262 255.39585209 C714.57059052 259.69788231 713.67373326 263.90501523 712.59931946 268.12304783 C712.27520081 269.42894871 712.27520081 269.42894871 711.9445343 270.76123142 C706.37424401 292.86958489 698.42313688 314.04362147 687.59931946 334.12304783 C687.26110168 334.76467869 686.92288391 335.40630955 686.57441711 336.06738377 C678.55609687 351.23838893 668.73091217 365.07414065 657.59931946 378.12304783 C656.65346582 379.25410593 655.70818622 380.38564425 654.76338196 381.51757908 C646.07687006 391.86356581 637.01639782 401.43758777 626.41181946 409.87304783 C623.44032053 412.25024697 620.55521861 414.71410272 617.66181946 417.18554783 C611.90706103 421.97015541 605.93619681 426.15503279 599.59931946 430.12304783 C598.58780823 430.76814304 598.58780823 430.76814304 597.55586243 431.42627048 C578.80086842 443.33716242 558.57462454 453.71054942 537.59931946 461.12304783 C536.55082825 461.49502293 536.55082825 461.49502293 535.4811554 461.87451267 C526.52861068 465.00346373 517.5325885 467.54372782 508.22431946 469.37304783 C507.47263489 469.52402927 506.72095032 469.67501072 505.94648743 469.83056736 C489.54120628 472.8277835 472.88391657 473.42102728 456.25164795 473.38374424 C454.2967456 473.3867743 452.34184443 473.39066801 450.38694531 473.39533681 C445.08003862 473.405515 439.77320024 473.40346135 434.46628821 473.39915621 C428.71774757 473.39667036 422.96922261 473.40572589 417.22068787 473.4131937 C405.98522526 473.4258901 394.74978661 473.42774085 383.51431804 473.42539344 C374.37740219 473.42360493 365.24049356 473.4253713 356.10357857 473.42961788 C354.14738939 473.43051067 354.14738939 473.43051067 352.15168123 473.43142148 C349.50176707 473.43263332 346.85185291 473.43384746 344.20193876 473.43506386 C326.43335136 473.44284043 308.66476707 473.4467776 290.89617825 473.44274712 C289.85622495 473.44251255 289.85622495 473.44251255 288.79526249 473.44227325 C285.28210129 473.44146758 281.76894009 473.44062181 278.2557789 473.43975995 C277.55817152 473.43958886 276.86056414 473.43941777 276.14181715 473.4392415 C274.7310915 473.43889484 273.32036585 473.43854631 271.9096402 473.43819591 C249.95372639 473.43283753 227.99785274 473.44077806 206.04194641 473.45922947 C181.3211588 473.47998059 156.600397 473.49063547 131.87960011 473.48665398 C118.80962621 473.48474544 105.73968889 473.48719599 92.6697216 473.50136852 C81.54688118 473.51330855 70.42409989 473.5146576 59.30125862 473.50257836 C53.6339258 473.49670894 47.96670101 473.49553651 42.29937553 473.50758076 C37.09879287 473.51850417 31.89840759 473.51526019 26.6978339 473.50131907 C24.82934297 473.49868989 22.96083624 473.50098184 21.09236091 473.50905494 C4.36793406 473.57622785 -11.92447054 471.65736337 -28.15068054 467.49804783 C-29.63737244 467.11845921 -29.63737244 467.11845921 -31.15409851 466.73120213 C-79.99777683 453.7562581 -126.12658007 423.96457429 -157.40068054 384.12304783 C-158.37907898 382.94548923 -158.37907898 382.94548923 -159.37724304 381.74414158 C-178.74057256 358.33071326 -192.22804049 330.37058745 -201.57426453 301.635499 C-202.09704362 300.0461579 -202.63621552 298.46203498 -203.19779968 296.88598728 C-205.40556606 290.64015634 -206.71401563 284.30856973 -207.96318054 277.81054783 C-208.17136414 276.75931736 -208.37954773 275.70808689 -208.59403992 274.62500095 C-209.01130149 272.49683611 -209.41877386 270.36672977 -209.81669617 268.23486423 C-210.18550335 266.26964002 -210.57246262 264.30765746 -210.98466492 262.35107517 C-212.86338046 252.74370095 -212.79732224 243.12482017 -212.77568054 233.37304783 C-212.77513672 232.45319096 -212.7745929 231.53333408 -212.77403259 230.58560276 C-212.70945501 206.69370484 -210.79722117 183.2105493 -203.15653992 160.41113377 C-202.42406996 158.19385069 -201.75640227 155.96653109 -201.10380554 153.72461033 C-191.35573316 121.15917961 -171.93503694 91.40700549 -148.40068054 67.12304783 C-147.86862 66.56520603 -147.33655945 66.00736423 -146.78837585 65.43261814 C-138.56851827 56.83330954 -130.00104401 49.14851612 -120.40068054 42.12304783 C-119.35396179 41.35476658 -118.30724304 40.58648533 -117.22880554 39.79492283 C-97.10095294 25.4751073 -75.94882439 15.41637739 -52.40068054 8.12304783 C-51.73939148 7.91164158 -51.07810242 7.70023533 -50.39677429 7.48242283 C-40.57434133 4.34263864 -30.59427273 2.5417217 -20.40068054 1.12304783 C-19.28821551 0.9538735 -18.17575048 0.78469917 -17.02957439 0.61039835 C-11.36206243 -0.08940111 -5.70267239 -0.01300704 0 0 Z" fill="#c45a2c" transform="translate(424.4006805419922,656.8769521713257)"/>
<path d="M0 0 C0.99741211 0.00242706 1.99482422 0.00485413 3.02246094 0.00735474 C34.83835829 0.15663438 65.22620705 6.79504994 94.4375 19.5 C95.83324271 20.08355013 97.22905663 20.66693004 98.625 21.25 C110.01571575 26.37478468 121.12421697 32.46218025 131.4375 39.5 C131.96907715 39.86174316 132.5006543 40.22348633 133.04833984 40.59619141 C141.98225266 46.71422859 150.27940944 53.38923188 158.4375 60.5 C159.16453125 61.11488281 159.8915625 61.72976562 160.640625 62.36328125 C170.23625966 70.53517337 178.67889874 79.58248361 186.4375 89.5 C187.25089844 90.51964844 188.06429688 91.53929687 188.90234375 92.58984375 C203.14987116 110.6001938 215.27826746 131.01676818 223.4375 152.5 C223.69289551 153.14549805 223.94829102 153.79099609 224.21142578 154.45605469 C233.71015695 178.46598282 239.46938329 204.28971627 239.67578125 230.16796875 C239.683853 231.16468094 239.69192474 232.16139313 239.70024109 233.18830872 C239.71399209 235.29178173 239.72475386 237.39527622 239.73266602 239.4987793 C239.74409586 241.60138731 239.76440163 243.70396842 239.79418945 245.80639648 C240.08944696 266.73668964 237.17812872 286.3803517 231.07861328 306.39453125 C230.43165812 308.51918522 229.80665846 310.64948208 229.18359375 312.78125 C226.84404389 320.65913911 224.01557763 328.09254162 220.4375 335.5 C219.85038284 336.87338859 219.26699274 338.24837698 218.6875 339.625 C209.86929453 359.36098367 198.32743488 377.95318674 184.4375 394.5 C183.93105957 395.1079541 183.42461914 395.7159082 182.90283203 396.34228516 C172.11448758 409.2358344 160.73876359 421.16975036 147.4375 431.5 C146.18316299 432.50597354 144.92928805 433.51252341 143.67578125 434.51953125 C125.20204571 449.18234374 102.94619563 463.6895257 80.2265625 470.54296875 C77.37826277 471.44248464 77.37826277 471.44248464 74.65405273 472.95239258 C71.48483014 474.47722765 68.59336111 475.38647931 65.18359375 476.21875 C63.99830078 476.51136719 62.81300781 476.80398438 61.59179688 477.10546875 C60.36525391 477.40066406 59.13871094 477.69585938 57.875 478 C56.67552734 478.29519531 55.47605469 478.59039063 54.24023438 478.89453125 C51.82082726 479.48730558 49.39940251 480.07190286 46.97607422 480.6484375 C44.71168177 481.1933665 42.45214453 481.75915547 40.19970703 482.3515625 C25.81572545 486.00914646 10.88304736 485.73369423 -3.875 485.75 C-4.68377594 485.75167175 -5.49255188 485.75334351 -6.32583618 485.75506592 C-18.34188288 485.75655035 -29.79656844 485.1030822 -41.5625 482.5 C-42.4803125 482.3453125 -43.398125 482.190625 -44.34375 482.03125 C-50.98219917 480.91047287 -57.33689932 478.78416963 -63.73046875 476.72265625 C-66.76137383 475.74544682 -69.80743641 474.85617804 -72.875 474 C-77.41313437 472.65452298 -81.59997761 470.75313557 -85.875 468.734375 C-88.24789741 467.6444977 -90.61395927 466.71369902 -93.0625 465.8125 C-108.30983201 459.75699314 -122.21110945 450.92218221 -135.5625 441.5 C-136.14112793 441.09394531 -136.71975586 440.68789063 -137.31591797 440.26953125 C-144.28013731 435.34223571 -150.60073185 429.89577257 -156.80859375 424.0703125 C-159.12450146 421.90879863 -161.47293872 419.8141991 -163.875 417.75 C-170.31578767 412.1308766 -175.83690203 406.09985862 -181.1875 399.4296875 C-182.74045711 397.51403316 -184.32301457 395.62190588 -185.9375 393.7578125 C-207.88915149 368.358626 -223.68637662 336.78304334 -232.5625 304.5 C-233.07876953 302.70949219 -233.07876953 302.70949219 -233.60546875 300.8828125 C-234.71989036 296.77525084 -235.67474111 292.66131578 -236.5625 288.5 C-236.74731934 287.66500977 -236.93213867 286.83001953 -237.12255859 285.96972656 C-240.39269551 270.59094551 -240.93945586 255.47440889 -240.9375 239.8125 C-240.93931274 238.8687854 -240.94112549 237.9250708 -240.94299316 236.95275879 C-240.94052982 225.62283257 -240.41901917 214.69616124 -238.5625 203.5 C-238.26025513 201.57812866 -238.26025513 201.57812866 -237.9519043 199.61743164 C-228.71970433 142.72785747 -195.57398917 86.40526764 -149.5625 51.5 C-148.92070801 50.99823242 -148.27891602 50.49646484 -147.61767578 49.97949219 C-132.481055 38.16100612 -116.26397122 28.03235173 -98.5625 20.5 C-97.19351563 19.88705078 -97.19351563 19.88705078 -95.796875 19.26171875 C-65.26820131 6.06142745 -33.18072024 -0.16505217 0 0 Z" fill="#c45a2c" transform="translate(626.5625,150.5)"/>
<path d="M0 0 C56.43 0 112.86 0 171 0 C171 53.13 171 106.26 171 161 C145.38340064 161 120.26061119 157.42626515 97 146 C96.3817334 145.69900391 95.7634668 145.39800781 95.12646484 145.08789062 C53.36085177 124.53797679 20.45841176 89.43797659 5.125 45.1875 C4.39223072 42.79902713 3.68246044 40.40333128 3 38 C2.68160156 36.94554687 2.36320313 35.89109375 2.03515625 34.8046875 C-1.08742008 22.86119277 0 13.10681932 0 0 Z" fill="#c45a2c" transform="translate(167,369)"/>
</svg>
